<?xml version="1.0" encoding="utf-8"?>
<!-- Generator: Adobe Illustrator 26.0.0, SVG Export Plug-In . SVG Version: 6.00 Build 0)  -->
<svg version="1.1" id="Calque_6" xmlns="http://www.w3.org/2000/svg" xmlns:xlink="http://www.w3.org/1999/xlink" x="0px" y="0px"
	 viewBox="0 0 585.7 849.86" style="enable-background:new 0 0 585.7 849.86;" xml:space="preserve">
<style type="text/css">
	.st0{fill:#3E1F38;}
	.st1{fill:#662482;}
	.st2{fill:#581D6F;}
	.st3{opacity:0.2;fill:#FDFFFF;}
	.st4{fill:#CE6215;}
	.st5{fill:url(#SVGID_1_);}
	.st6{opacity:0.85;fill:#FDFFFF;}
	.st7{fill:#FFFFFF;}
	.st8{opacity:0.45;fill:#8688A8;}
	.st9{fill:#C44C17;}
	.st10{fill:#DE4958;}
	.st11{fill:#903358;}
	.st12{fill:#3E1F38;stroke:#3E1F38;stroke-width:0.25;stroke-miterlimit:10;}
	.st13{fill:#EF8008;}
	.st14{fill:#FDFFFF;}
	.st15{opacity:0.5;fill:#FBCE59;}
	.st16{fill:#C95717;}
</style>
<g>
	<g>
		<g>
			<g>
				<path class="st0" d="M294.98,336.29c0.02,0,0.13,0.11-0.07,0.17c-0.06-0.14-0.1-0.06-0.15-0.11c-0.06-0.02-0.07-0.13-0.3,0.06
					c-0.08-0.04-0.16-0.09-0.26-0.16c-0.37-0.27-0.87-0.77-1.54-1.54c-0.34-0.38-0.71-0.84-1.13-1.36
					c-0.22-0.26-0.44-0.54-0.68-0.83c-0.12-0.14-0.25-0.29-0.38-0.44c0.21-0.26,0.6-0.63,0.9-0.95c-0.02-0.1-0.1-0.16-0.14-0.24
					c-0.45-0.6-0.95-1.25-1.57-1.84c-0.61-0.57-1.4-1.16-2.25-1.08c-0.18,0.02-0.36,0.07-0.53,0.15c0.25-0.28,0.27-0.75,0.33-1.16
					c0.04-0.44,0.06-0.89,0.06-1.36c0-0.47-0.01-0.96-0.03-1.46c0.06-0.06-0.15-0.13-0.28-0.2l-0.43-0.21l-0.89-0.42l-0.46-0.21
					l-0.23-0.11c-0.06-0.1-0.02-0.08-0.04-0.12l-0.02-0.36c-0.09-1.95-0.27-4.1-0.54-6.41c-0.53-4.62-1.41-9.88-2.74-15.67
					c-2.67-11.56-7.14-25.39-15.12-39.89c-7.94-14.46-19.6-29.53-36.05-42.07c-4.1-3.14-8.48-6.12-13.14-8.9
					c-4.63-2.76-9.66-5.42-14.81-7.84c-10.35-4.84-21.57-8.82-33.56-11.33c-11.99-2.53-24.7-3.57-38.02-3.05
					c-6.67,0.24-13.48,0.85-20.59,1.63c-3.57,0.39-7.2,0.81-11.02,1.19c-3.83,0.36-7.81,0.71-12.34,0.65
					c-1.13-0.02-2.32-0.07-3.54-0.17l-0.94-0.09c-0.32-0.03-0.59-0.05-1.01-0.12c-0.78-0.12-1.54-0.22-2.34-0.4
					c-3.2-0.65-6.31-1.79-9.07-3.54c-2.78-1.72-5.12-4.12-6.88-6.9c-1.78-2.78-2.96-5.95-3.64-9.25c-0.63-3.03-0.87-6.18-0.57-9.33
					c0.29-3.14,1.08-6.21,2.25-8.95c2.34-5.52,5.82-9.88,9.49-13.41c3.7-3.54,7.68-6.36,11.75-8.76c4.08-2.42,8.27-4.38,12.54-6.08
					c8.54-3.38,17.37-5.67,26.38-7.12c18.01-2.86,36.85-2.54,55.63,1.55c9.37,2.06,18.72,5.1,27.75,9.28
					c9.03,4.18,17.74,9.51,25.69,16.04c1.98,1.64,3.93,3.32,5.81,5.09c0.98,0.89,1.81,1.73,2.68,2.59l2.6,2.57
					c3.44,3.47,6.79,7.06,10.03,10.78c6.48,7.42,12.55,15.31,18.16,23.6c11.25,16.56,20.59,34.72,28.02,53.97l-26.66,8.41
					c-5.51-20.86-12.84-41.64-22.21-61.83c-2.37-5.03-4.81-10.06-7.43-15.01c-0.63-1.25-1.32-2.47-1.98-3.71l-1-1.85
					c-0.21-0.38-0.24-0.44-0.24-0.44l-0.26-0.38c-1.58-2.31-3.17-4.63-4.76-6.95c-6.49-9.16-13.47-17.98-21.06-26.18
					c-7.6-8.18-15.77-15.83-24.68-22.35l-3.35-2.43c-1.13-0.8-2.29-1.53-3.43-2.3c-2.27-1.58-4.67-2.91-7.01-4.36
					c-4.79-2.7-9.7-5.17-14.77-7.33c-10.19-4.25-20.92-7.23-32.36-9.23c-5.73-1.02-11.64-1.82-17.89-2.67l-4.77-0.67
					c-1.65-0.26-3.26-0.48-4.97-0.78l-2.56-0.45l-2.66-0.54l-0.97-0.2c-0.34-0.07-0.73-0.17-1.11-0.26L89.37,80
					c-1.5-0.43-3-0.82-4.49-1.27l-2.91-1.38l-1.46-0.69c-0.48-0.24-0.88-0.57-1.33-0.85c-0.9-0.54-1.65-1.3-2.47-1.97
					c-0.73-0.77-1.52-1.49-2.17-2.34c-2.72-3.31-4.39-7.37-5.18-11.62c-0.77-4.27-0.51-8.8,0.56-13.21c0.58-2.19,1.25-4.39,2.18-6.5
					c0.46-1.12,0.91-1.94,1.3-2.71c0.4-0.8,0.84-1.55,1.29-2.29c3.59-5.95,8.33-10.72,13.49-14.45c5.16-3.78,10.78-6.41,16.4-8.33
					c5.16-1.74,10.34-2.81,15.43-3.43c2.57-0.34,5.03-0.47,7.5-0.62c1.24-0.08,2.46-0.06,3.69-0.08c1.23-0.02,2.46-0.04,3.68,0.02
					l3.66,0.13c1.21,0.07,2.42,0.19,3.63,0.28c2.43,0.15,4.8,0.54,7.19,0.82c4.73,0.75,9.43,1.65,13.98,2.88
					c9.15,2.38,17.92,5.66,26.23,9.64c8.32,3.96,16.21,8.58,23.65,13.7c14.89,10.25,27.97,22.49,39.28,35.83
					c5.66,6.67,10.88,13.63,15.7,20.79c4.82,7.16,9.15,14.55,13.15,22.06c7.88,15.08,14.29,30.64,19.26,46.39
					c4.99,15.74,8.64,31.63,11.22,47.43c5.14,31.63,6.12,62.85,4.44,93.01l-27.02-4.1c5.54-21.03,9.37-41.62,10.01-61.73
					c0.34-10.05-0.02-19.88-1.33-29.54c-1.25-9.81-3.12-19.38-5.66-28.58c-2.54-9.2-5.75-18.04-9.57-26.48
					c-3.8-8.46-8.32-16.44-13.25-24.25c-2.46-3.9-5.07-7.77-7.72-11.73c-2.65-3.98-5.4-8.02-8.05-12.69l-0.99-1.76l-0.96-1.91
					c-0.65-1.22-1.24-2.68-1.82-4.07c-0.3-0.66-0.54-1.51-0.81-2.27l-0.38-1.17c-0.13-0.38-0.25-0.78-0.34-1.22
					c-0.2-0.86-0.39-1.72-0.56-2.59c-0.19-0.84-0.24-1.85-0.33-2.76c-0.23-1.83-0.05-3.86,0.09-5.79c0.35-1.92,0.67-3.91,1.37-5.63
					c0.33-0.87,0.63-1.81,1.02-2.6c0.4-0.79,0.8-1.57,1.22-2.34c0.21-0.38,0.41-0.79,0.64-1.13l0.68-1.01
					c0.42-0.61,1.01-1.47,1.58-2.25l2.78-3.01c1.06-0.85,2.11-1.74,3.25-2.47c1.18-0.68,2.33-1.39,3.58-1.94
					c1.31-0.51,2.49-1.03,3.64-1.33c4.67-1.36,9.05-1.55,13.1-1.21c4.05,0.34,7.88,1.12,11.42,2.31c1.82,0.52,3.48,1.26,5.19,1.93
					c1.66,0.73,3.27,1.52,4.86,2.33c6.26,3.36,11.73,7.53,16.53,12.1c4.78,4.59,8.97,9.54,12.47,14.75c0.94,1.27,1.7,2.62,2.55,3.93
					l1.23,1.97c0.39,0.66,0.75,1.34,1.12,2.01c0.73,1.34,1.5,2.67,2.19,4.01c0.66,1.36,1.31,2.71,1.96,4.06
					c0.68,1.34,1.23,2.72,1.8,4.08c0.56,1.37,1.16,2.72,1.68,4.08c0.49,1.37,0.98,2.74,1.47,4.1l0.73,2.04l0.62,2.05
					c3.4,10.92,5.4,21.71,6.54,32.12c0.63,5.2,0.87,10.35,1.14,15.35c0.18,4.98,0.23,9.86,0.16,14.66
					c-0.07,4.8-0.26,9.51-0.56,14.12c-0.29,4.61-0.81,9.07-1.22,13.47c-1.91,17.55-5.37,33.42-9.47,47.37
					c-4.09,13.97-9.09,25.96-14.02,36.04c-4.96,10.07-9.96,18.2-14.44,24.48c-1.16,1.58-2.18,2.99-3.27,4.42
					c-1.21,1.52-2.41,2.65-3.52,3.67c-2.23,2-4.13,3.47-5.49,4.71c-0.65,0.59-1.28,1.25-1.84,1.77c-0.56,0.53-1.05,0.95-1.47,1.29
					c-0.84,0.66-1.38,0.94-1.64,0.81l-0.01,0.01c-0.13,0.1-0.11,0.1-0.13,0.1c-0.01,0.01-0.07-0.04,0.06-0.18l0,0.01
					c-0.19-0.22-0.08-0.83,0.3-1.81c0.19-0.49,0.46-1.08,0.79-1.76c0.34-0.68,0.7-1.44,1.29-2.39c1.13-1.82,2.74-3.74,4.44-5.97
					c0.84-1.11,1.72-2.31,2.4-3.54c0.76-1.44,1.58-2.97,2.44-4.59c3.44-6.59,7.34-14.89,11.19-24.92
					c3.82-10.04,7.68-21.8,10.67-35.34c2.99-13.52,5.39-28.73,6.33-45.48c0.17-4.19,0.46-8.48,0.51-12.83
					c0.07-4.35,0.04-8.78-0.11-13.3c-0.15-4.52-0.4-9.13-0.78-13.8c-0.46-4.63-0.87-9.32-1.65-14.03c-1.43-9.43-3.62-19-6.92-28.36
					c-3.26-9.37-7.82-18.47-13.75-26.61c-2.94-4.09-6.36-7.82-10.07-11.16c-3.72-3.33-7.82-6.2-12.15-8.36
					c-1.09-0.51-2.18-1-3.28-1.45c-1.11-0.37-2.21-0.86-3.31-1.11c-2.21-0.69-4.41-1.01-6.44-1.12c-0.49,0-1.02-0.07-1.49-0.03
					c-0.46,0.04-0.93,0.07-1.39,0.08c-0.42,0.08-0.82,0.16-1.23,0.21c-0.4,0.07-0.69,0.22-1.05,0.29c-0.35,0.08-0.57,0.28-0.71,0.29
					c-0.17,0.05-0.33,0.2-0.5,0.29c-0.15,0.13-0.26,0.29-0.44,0.38c-0.12,0.15-0.25,0.3-0.36,0.46c-0.06,0.15-0.11,0.23-0.33,0.55
					l-0.27,0.4c-0.09,0.13-0.11,0.24-0.17,0.36c-0.1,0.24-0.22,0.46-0.34,0.69c-0.12,0.22-0.1,0.4-0.18,0.59
					c-0.21,0.39-0.1,0.7-0.24,1.02c0.09,0.36-0.06,0.63,0.08,1.08c0.06,0.22-0.01,0.38,0.1,0.66c0.08,0.26,0.15,0.52,0.2,0.79
					c0.03,0.25,0.23,0.61,0.32,0.92c0.14,0.33,0.18,0.61,0.38,0.99c0.36,0.73,0.62,1.43,1.1,2.25l0.64,1.2l0.76,1.27
					c2.05,3.41,4.68,7.12,7.39,10.97c2.72,3.86,5.57,7.86,8.34,12.04c5.56,8.36,10.92,17.32,15.46,26.87
					c4.58,9.53,8.47,19.58,11.55,29.97c3.09,10.39,5.39,21.11,6.99,32c1.69,11.04,2.32,22.42,2.12,33.77
					c-0.35,22.75-4.32,45.58-9.85,67.83l-32.69,131.43l5.67-135.53c1.19-28.4-0.11-57.71-5.16-86.87
					c-5.04-29.12-13.99-58.11-28.21-84.74c-3.59-6.63-7.45-13.14-11.72-19.4c-4.26-6.25-8.85-12.3-13.79-18.06
					c-9.86-11.52-21.12-21.92-33.62-30.46c-6.25-4.27-12.8-8.06-19.58-11.28c-6.78-3.23-13.82-5.83-20.98-7.67
					c-3.57-0.97-7.18-1.63-10.79-2.22c-1.8-0.2-3.61-0.51-5.41-0.61c-0.9-0.07-1.8-0.16-2.7-0.21l-2.69-0.09
					c-0.9-0.05-1.79-0.02-2.68-0.01c-0.89,0.03-1.79-0.01-2.67,0.06l-2.65,0.17c-0.9,0.03-1.7,0.18-2.55,0.26
					c-3.35,0.41-6.54,1.1-9.47,2.08c-3.18,1.09-6.09,2.48-8.42,4.21c-2.36,1.69-4.23,3.69-5.4,5.65c-0.15,0.24-0.31,0.48-0.41,0.72
					c-0.13,0.26-0.24,0.45-0.21,0.39l0,0l-0.01,0.01c0,0.01,0,0.01,0,0.02l0,0l0,0c0,0-0.01,0,0.03,0l0.18,0.04l1.95,0.4l2.06,0.37
					c1.37,0.25,2.85,0.46,4.3,0.69l4.51,0.65c6.12,0.85,12.55,1.73,19.04,2.91c13.01,2.31,26.22,5.97,38.66,11.25
					c6.21,2.67,12.23,5.72,18.04,9.05c2.84,1.76,5.75,3.42,8.47,5.32c1.37,0.93,2.77,1.83,4.12,2.79l3.99,2.93
					c10.6,7.86,20.02,16.82,28.61,26.19c8.58,9.39,16.27,19.28,23.31,29.39c1.71,2.55,3.43,5.1,5.13,7.64l0.41,0.61
					c0.14,0.22,0.37,0.52,0.55,0.84l0.8,1.5l1.07,2.02c0.71,1.35,1.44,2.68,2.11,4.04c2.79,5.4,5.39,10.87,7.9,16.34
					c9.93,21.95,17.57,44.4,23.21,66.83L271.55,252c-6.46-17.36-14.64-33.8-24.47-48.71c-4.9-7.46-10.19-14.56-15.83-21.23
					c-2.82-3.34-5.73-6.56-8.72-9.68l-2.27-2.31c-0.75-0.76-1.52-1.57-2.23-2.23c-1.43-1.4-2.92-2.72-4.43-4.02
					c-12.14-10.33-26.91-17.17-42.26-20.86c-15.36-3.69-31.33-4.32-46.36-2.27c-7.5,1.03-14.78,2.76-21.46,5.22
					c-3.33,1.23-6.52,2.64-9.4,4.25c-1.47,0.79-2.8,1.66-4.1,2.53c-1.25,0.9-2.46,1.81-3.49,2.76c-2.1,1.89-3.59,3.86-4.36,5.53
					c-0.77,1.69-0.87,2.97-0.67,4.53c0.1,0.96,0.54,1.94,1.37,2.5c0.41,0.28,0.88,0.46,1.37,0.59c0.12,0.03,0.3,0.04,0.44,0.09
					c0.04,0.02,0.24,0.04,0.39,0.06l0.47,0.06c0.65,0.07,1.34,0.13,2.08,0.16c2.95,0.14,6.41-0.02,9.92-0.25
					c3.64-0.28,7.25-0.55,10.83-0.83c7.34-0.57,14.78-1,22.16-1.02c14.76-0.09,29.24,1.6,42.69,4.99
					c13.46,3.36,25.87,8.36,37.05,14.2c5.6,2.95,10.85,6.03,15.94,9.39c5.06,3.35,9.8,6.93,14.21,10.66
					c8.83,7.47,16.27,15.62,22.4,23.91c6.14,8.29,10.98,16.72,14.76,24.89c7.57,16.36,11.07,31.49,12.63,43.99
					c0.77,6.26,1.04,11.9,0.94,16.86c-0.05,2.48-0.19,4.79-0.44,6.95l-0.05,0.4l-0.05,0.3c-0.03,0.2-0.07,0.41-0.1,0.61
					c-0.07,0.4-0.15,0.8-0.23,1.19c-0.09,0.39-0.19,0.77-0.3,1.15c-0.14,0.36-0.23,0.77-0.54,1.03c0.15-0.07,0.31-0.11,0.46-0.13
					c0.74-0.08,1.38,0.42,1.84,0.92c0.47,0.52,0.84,1.1,1.15,1.66c0.62,1.14,1.03,2.22,1.35,3.14
					C294.84,334.83,295.09,336.13,294.98,336.29z"/>
			</g>
		</g>
	</g>
</g>
<path class="st1" d="M30.55,714.72c13.11,53.36,80.98,95.57,157.37,113.69c0.62,0.14,1.14,0.24,1.57,0.33
	c0.38,0.14,0.81,0.24,1.19,0.29c2.96,0.72,5.91,1.34,8.92,1.96c17.5,3.58,35.43,5.91,53.13,7.3c65.67,5.25,128.86-2.77,161.47-12.07
	c21.13-5.96,49.07-19.84,70.58-36.1c67.86-51.22,83.41-104.25,79.59-154.65c-2.62-34.91-8.68-85.6-21.89-135.72c0-0.1,0-0.14,0-0.14
	c-9.3-35.1-22.08-69.91-39.72-98.81c-9.35-15.31-20.03-28.95-32.33-40.11c-43.54-39.53-98.05-61.52-160.95-62.71
	c-95.38-1.81-181.79,39.15-231.34,153.56c0,0.05-0.05,0.05-0.05,0.1c-4.67,10.83-9.06,22.32-13.07,34.53
	c-2.1,6.39-4.1,12.97-6.01,19.74c-4.77,16.98-9.3,32.38-13.64,49.21c-5.87,22.6-11.4,47.59-16.88,81.93
	C25.02,658.78,25.06,692.45,30.55,714.72z"/>
<path class="st2" d="M263.84,840c82.5,1.34,160.74-10.54,235.43-64.48c42.41-30.63,68.92-89.63,65.11-140.04
	c-2.62-34.91-4.3-75.35-4.3-75.35l-11.92-34.81c0,0,11.52,130.25-39.74,203.97C436.51,832.69,263.84,838.25,263.84,840z"/>
<path class="st3" d="M148.81,816.08c-8.7-2.52-57.7-29.88-81.09-63.6C43.07,716.95,33.67,691.07,38.3,650.6
	C44.25,598.49,64.22,516,64.22,516l-18.85,39.13c-5.87,22.6-11.64,47.56-16.88,81.93C15.97,719.05,61.11,790.71,148.81,816.08z"/>
<path class="st0" d="M216.26,187.32c47.25,27.73,65.45,71.34,72.4,103.04c0,0-1.34,12.39-0.92,15.69c-0.57,0-1.15,0.05-1.77,0.1
	c-0.33,0-0.67,0.05-1,0.1c-5.01,0.33-10.06,0.81-15.07,1.48c-27.33,3.24-53.65,11.02-77.45,22.84
	c-23.84,11.78-44.97,27.85-62.19,46.97c-17.22,19.08-31.05,40.82-40.63,63.86l-3.86,8.54c-1.05,2.91-2.05,5.87-3.1,8.77
	c-2,5.87-4.05,11.68-6.06,17.45c-1.53,5.96-3.05,11.87-4.53,17.79c-1.53,5.87-3.1,11.68-4.34,17.79
	c-5.25,24.04-11.16,47.31-17.03,69.77c-5.82,22.46-11.87,44.16-15.5,65.1c-2,10.49-2.86,20.79-2.91,30.81
	c0,10.01,1.67,19.65,4.05,28.9c5.63,18.41,15.45,34.62,27.28,47.93c11.78,13.5,25.66,23.99,39.39,32.76
	c13.69,9.01,26.99,13.62,40.25,19.48c26.8,11.25,53.5,16.43,73.63,20.63c40.3,8.25,55.91,11.04,61.85,12.49
	c0,0.52-5.72,0.86-16.69,1.1c-10.97-0.33-27.23-0.81-47.83-4.29c-20.55-3.39-45.64-9.11-73.44-19.93
	c-13.78-5.63-28.47-12.16-42.92-21.17c-14.5-8.87-29.33-19.55-42.25-33.76c-12.97-14.12-24.08-31.57-30.57-51.84
	c-2.86-10.25-4.86-21.03-5.01-32.09c-0.14-10.97,0.72-22.13,2.62-33.05c3.53-22.03,9.39-43.87,14.97-66.38
	c5.68-22.51,11.3-45.59,16.26-69.44c2.48-11.87,5.91-24.32,8.92-36.67c2.05-6.06,4.1-12.16,6.2-18.31c1.05-3.05,2.15-6.15,3.19-9.2
	c1.34-3,2.67-6.01,4.01-9.01c9.97-24.27,24.56-47.5,42.87-68.05c18.36-20.51,41.06-37.91,66.57-50.6
	c25.47-12.64,53.46-20.94,82.26-24.37c3.14-0.41,6.29-0.68,9.44-0.96c-0.06-0.2-0.13-0.4-0.18-0.6c-2.41-7.78-5.61-17.33-10.58-27.7
	c-5.99-12.27-12.87-22.83-20.99-32.26c-10.51-12.26-22.41-22.02-35.37-28.99"/>
<path class="st0" d="M352.14,152.84c2.57,46.05-5.93,80.96-13.51,102.14c-1.65,5.21-3.72,10.11-5.72,14.84
	c-0.65,1.54-1.3,3.07-1.91,4.57c-0.7,1.46-1.29,2.69-1.88,3.91c-2.16,4.5-4.22,8.75-6.56,12.72c9.59,0.68,19.08,1.75,28.45,3.43
	c13.97,2.43,27.61,5.91,40.82,10.49c13.11,4.48,26.18,10.11,37.96,17.22l8.82,5.06l8.58,5.72l4.24,2.86l4.05,3.15l8.01,6.25
	c10.21,8.87,19.84,18.26,28.23,28.47c8.39,10.21,16.12,20.79,22.7,31.86c6.72,10.92,12.54,22.27,17.64,33.67
	c20.51,45.73,30,92.56,34.81,136.25c2.34,21.98,3.34,42.97,3.39,63.71c-0.95,21.13-5.25,40.58-11.45,58.56
	c-6.2,17.93-14.45,34.24-24.08,48.4c-9.92,13.97-20.89,25.94-32.43,35.72c-2.67,2.62-5.91,4.53-8.78,6.77
	c-2.96,2.1-5.77,4.29-8.68,6.25c-6.01,3.48-11.78,7.01-17.41,10.06c-11.3,5.77-21.94,10.49-31.62,14.4
	c-19.41,7.73-41.29,15.97-76.48,20.67c-47.86,6.4-89.42,2.95-101.85,0.55c-7-1.35,5.84-1.51,6.03-1.52
	c63.87-2.26,152.38-13.11,226.59-63.51c38.57-26.2,52.82-64.07,58.45-81.23c5.53-17.07,9.3-36.05,9.87-55.37
	c-0.38-19.7-1.62-40.73-4.15-62.04c-5.29-42.63-15.07-88.18-35.05-131.86c-5.01-10.87-10.59-21.65-17.07-32
	c-6.29-10.44-13.69-20.36-21.6-29.9c-8.01-9.54-17.03-18.26-26.61-26.51l-7.49-5.82l-3.77-2.86l-3.96-2.67l-7.96-5.29l-8.54-4.82
	c-11.06-6.63-22.84-11.59-35.34-15.88c-12.45-4.24-25.37-7.53-38.53-9.82c-12.73-2.24-25.8-3.53-38.96-3.86
	c-1.81-0.05-3.62-0.1-5.44-0.1c2.09-3.39,2.42-11.11,2.42-11.11l2.75-5.28c15.81-30.29,24.82-63.68,26.78-99.26
	c0.62-10.63,0.59-21.74-0.09-33.02"/>
<path class="st4" d="M196.36,765.74c-1.51,6.87-0.97,9.97-1.11,11.48c-0.09,1.2,7.79,10.54,12.82,13.49
	c1.81,1.06,18.8,2.37,21.86,1.77c43.61-8.46,57.49-58.84,57.49-58.84l-18.4-9.04l-60.71-23.37l-16.19,29.38
	C192.13,730.61,200.55,746.63,196.36,765.74z"/>
<path class="st0" d="M263.84,727.59c0,0-16.37,42.26-48.1,47.82c-7.23,1.26-10.16-8.42-10.16-9.66c0-1.25,1.51-26.65-4.77-45.07
	c-7.32-21.45,53.24-20.98,53.24-20.98L263.84,727.59z"/>
<g>
	
		<linearGradient id="SVGID_1_" gradientUnits="userSpaceOnUse" x1="329.1013" y1="249.0735" x2="541.7143" y2="-139.9883" gradientTransform="matrix(-1 0 0 1 590.3317 0)">
		<stop  offset="0" style="stop-color:#652682"/>
		<stop  offset="0.5329" style="stop-color:#466E90"/>
		<stop  offset="1" style="stop-color:#2AB19E"/>
	</linearGradient>
	<path class="st5" d="M70.25,166.19c4.29,35.67,63.66-15.4,147.41,33.81c74.16,43.54,71.62,119.57,71.62,120.43
		c0-0.48,2.92,7.33,3.21,6.76c-2.05,9.06-1,14.12-1,14.12c0.67-1.14,2.67-3.62,5.58-7.49c0-0.05,0.05-0.1,0.1-0.14
		c0.91-1.19,1.91-2.58,3-4.05c1.95-2.77,4.15-6.01,6.53-9.63c14.88-22.84,35.43-63.19,38.63-120.37c0.62-10.54,0.62-21.7-0.1-33.43
		c-5.96-94.95-68.86-113.07-82.07-95.76c-20.03,26.23,35.81,42.82,47.93,135.53c4.63,35.58-2.05,69.29-8.49,94.57
		c2.34-45.26-0.95-114.36-32.05-175.26C233.58,52.93,171.87,19.36,124.28,23.55C83.74,27.13,76.97,60.23,89.7,64.56
		c0.95,0.33,1.96,0.62,2.96,0.91c31.28,8.63,94.47-2.24,157.99,94.76c16.41,30,27.09,59.94,34,86.84
		c-10.92-29.04-28.95-61.14-56.65-88.03C170.97,103.62,65.86,130.04,70.25,166.19z"/>
</g>
<path class="st6" d="M51.52,631.34c0.46,7.52-1.01,49.44,53.85,70.91c44.34,17.35,51.26,7.99,53.77,7.57
	c40.47-6.81,49.23-37.31,54.74-45.37c6.89-10.13,17.41-29.24,15.91-63.33c-3.72-84.56-42.43-111.23-90.11-114.31
	c-27.48-1.78-50.37,18.85-61.02,46.18C64.65,568.95,50.49,614.38,51.52,631.34z"/>
<g>
	<path class="st7" d="M73.76,647.28c2.93,4.73,5.08,5.94,10.27,10.32c5.04,4.26,47.11,20.78,82.73,19.75
		c29.6-0.85,34.69-21.57,33.7-33.76c-2.65-32.65-10.16-53.92-28.14-72.29c-6.47-6.57-13.7-11.82-21.91-15.57
		c-4.43-2.06-9.93-3.37-15.71-3.85c-6.27-0.53-12.91-0.22-18.94,1.05c-3.69,0.76-7.24,1.99-10.6,3.71
		c-6.6,3.27-12.6,8.17-17.71,14.16l-0.19,0.28c-5.45,6.45-9.93,14.17-13.08,22.5C67.6,610.93,64.31,632.04,73.76,647.28z"/>
</g>
<path class="st8" d="M68.58,632.71c1.73,9.42,3.3-40.08,45.87-59.13c34.29-15.34,68.67,12.17,70.3,13.38l-2.83-5.65l-10.76-21.04
	c-3.05-2.41-11.5-4.8-21.41-6.48c-9.91-1.73-21.23-2.65-29.84-2.14c-5.4,0.31-9.79,1.23-12.05,2.96c-3,2.22-5.81,4.49-8.43,6.78
	l-0.25,0.23c-7.26,6.25-13.15,12.6-17.88,18.91C70.89,595.91,65.36,615.07,68.58,632.71z"/>
<path class="st6" d="M384.11,471.04c-56.55,3.57-93.71,44.63-116.61,111.77c-20.24,59.33-9.23,97.21-9.23,97.21
	c5.84,8.66,47.34,34.95,62.72,40.51c0,0,34.5,15.18,99.35,0c57.95-13.56,90.71-59.32,83.54-117.96
	C496.16,539.42,469.61,465.65,384.11,471.04z"/>
<path class="st9" d="M201.81,759.59c1.46-20.56-1.01-38.91-1.01-38.91c-1.03,0.73-8.93,4.79-7.56,9.79
	c6.3,22.96,1.55,44.15,2.01,46.75c0.43,2.49,7.6,17.77,26.43,16.44c13.83-0.97,24.9-6.76,41.39-21.11
	c17.9-15.58,25.14-40.94,25.14-40.94l-9.35,0.02l-15.55-2.76c0,0,3.19,4.86,15.2,7.45c-19.58,29.5-46.5,57.41-72.81,50.92
	C196.58,778.12,201.33,766.41,201.81,759.59z"/>
<path class="st10" d="M205.7,767.77c0,0,1.62,12.64,9.59,8.68c2.58-1.29,17.5-7.34,31-22.32c1.14-1.29,2.24-2.67,3.24-4.1
	c7.06-9.73,11.64-22.22,11.64-22.22s-14.88-1.38-33.57,8.39c-18.36,9.54-20.89,17.45-20.89,17.45l-0.33,4.58L205.7,767.77z"/>
<path class="st11" d="M206.37,758.23c15.02-11.06,34.05-11.54,43.16-8.2c7.06-9.73,12.77-22.16,12.77-22.16s-16.02-1.44-34.71,8.34
	c-18.36,9.54-20.89,17.45-20.89,17.45L206.37,758.23z"/>
<path class="st0" d="M269.3,716.96c-1.1-0.53-10.26,17.15-25.44,35.84c-7.89,8.76-16.32,16.18-22.8,20.12
	c-3.28,1.95-6.15,2.9-8.18,3.06c-2.02,0.15-3.22-0.26-3.41,0.12c-0.15,0.22,0.81,1.35,3.29,1.86c2.46,0.49,6.12-0.09,9.96-1.83
	c7.72-3.61,16.55-10.62,25.04-20.02C263.57,736.63,270.79,717.52,269.3,716.96z"/>
<path class="st12" d="M194.43,778.6c0.86,1.29,10.27,14.53,20.5,15.75c6.11,0.73,29.36-0.61,44.51-15.1
	c13.18-12.61,20.47-22.69,30.2-46.48c4.46-10.91-1.63-8.22-2.21-8.36c-0.76-0.29-1.8,6.56-6.13,17.39
	c-4.24,10.57-13.6,23.74-26.48,35.23c-3.19,2.86-6.58,5.44-9.87,7.34c-3.62,1.81-7.15,3.48-10.63,4.63
	c-6.96,2.43-13.66,3.31-19.08,2.38c-8.62-1.48-12.35-5.44-13.3-6.49c-1.12-1.24-5.34-5.46-5.53-7.37c-0.1-1.01,1.28-9.56,1.57-11.99
	c1.1-10.59,0.24-20.36-1.43-27.14c-1.67-6.77-3.82-10.59-4.43-10.4c-0.72,0.29-0.12,3.53-0.12,3.53s5.74,13.17,3.2,33.82
	C194.64,769.73,194.2,777.64,194.43,778.6z"/>
<path class="st13" d="M157.32,740.06c5.58,17.02,17.12,27.66,17.12,27.66s5.82-3.58,8.01-16.17c0.81-4.86,12.21-26.23,12.21-26.23
	c6.39-7.01,15.26-11.16,23.99-13.02c0.57-0.1,1.1-0.19,1.67-0.29c16.36-2.05,31.87,16.54,56.24,19.4
	c7.53,0.91,17.34-0.37,26.45-3.42c22.17-7.34,23.08-14.78,23.08-14.78s-10.57,2.39-30.52-5.1c-22.41-8.42-22.84-29.01-48.26-47.61
	c-17.03-12.45-35.1-4.29-37.77-1.48c-3.01,3.1-38.06,28.67-46.55,38.59C154.36,707.73,152.88,726.62,157.32,740.06z"/>
<path class="st7" d="M299.3,674.63c3.67,21.32,69.86,10.68,129.38,7.63c12.07-9.49,20.94-20.41,21.98-36.82
	c0.14-1.91,0.14-3.86,0.05-5.91c-0.05-0.81-0.1-1.67-0.14-2.48c-0.19-2.62-0.57-5.34-1.24-8.15c-0.19-0.86-0.38-1.72-0.62-2.58
	c-7.01-26.09-31.05-56.27-63.14-62.38c-2.67-0.48-5.44-0.86-8.2-0.95c-1.53-0.1-3.1-0.14-4.67-0.14
	C325.05,563.75,286.37,599.57,299.3,674.63z"/>
<g>
	
		<ellipse transform="matrix(1 -7.664696e-03 7.664696e-03 1 -4.7528 1.1267)" class="st0" cx="144.61" cy="620.65" rx="26.82" ry="32.57"/>
	<path class="st14" d="M150.21,608.15c0.04,5.18,3.63,8.1,8.04,8.07c4.4-0.03,7.95-3.01,7.91-8.19s-3.64-8.68-8.04-8.65
		C153.71,599.41,150.17,602.97,150.21,608.15z"/>
</g>
<g>
	
		<ellipse transform="matrix(0.9998 -0.0187 0.0187 0.9998 -11.7487 7.1868)" class="st0" cx="377.71" cy="630.66" rx="26.82" ry="32.57"/>
	<path class="st14" d="M383.16,618.1c0.1,5.18,3.72,8.06,8.13,7.98c4.4-0.08,7.92-3.1,7.82-8.27s-3.73-8.64-8.14-8.56
		C386.57,609.32,383.07,612.92,383.16,618.1z"/>
</g>
<path class="st8" d="M349.66,571.81c0,0,89.42-8.97,89.42,76.64c0,15.31-4.86,27.85-10.4,33.81c12.07-9.49,20.94-20.41,21.98-36.82
	c0.14-1.91,0.14-3.86,0.05-5.91c-0.05-0.81-0.1-1.67-0.14-2.48c-0.19-2.62-0.57-5.34-1.24-8.15c-0.19-0.86-0.38-1.72-0.62-2.58
	c-6.68-26.9-29.85-60.14-62-66.19c-3.15,0.76-6.29,1.72-9.35,2.86C366.16,567,349.66,571.81,349.66,571.81z"/>
<path class="st0" d="M450.83,642.64c2.74-0.34,6.35-62.48-45.83-86.7c-33.67-15.63-75.14-4.82-100.57,34.19
	c-19.49,29.9-11.02,74.63-8.08,74.61c1.12-0.01,0.19-101.49,83.2-96.95C444.75,571.37,449.28,642.83,450.83,642.64z"/>
<path class="st0" d="M69.5,635.63c-2.36-0.41-9.17-63.56,36.82-85.26c29.68-14,65.19-2.5,85.83,35.54
	c15.83,29.16,9.09,71.79,6.54,71.69c-0.97-0.04,1.22-97.19-70.77-95.17C71.39,564.01,70.83,635.86,69.5,635.63z"/>
<path class="st15" d="M221.88,661.64c0,0-40.97,38.07-47.39,60.09c-6.01,20.6-1.61,34.83-1.61,34.83s-13.42-23.49-9.09-43.45
	c0.73-3.37,8.67-14.45,20.95-25.99c15.28-14.35,23.43-21.38,30.78-23.72C218.81,662.36,221.88,661.64,221.88,661.64z"/>
<path class="st16" d="M188.96,728.57c0.95-1.05,16.62-13.1,31.28-16.55c16.36-2.05,41.69,18.44,46.25,17.21
	c-5.91-4.1-26.53-26.53-44.62-26.55C203.4,702.66,192.16,719.94,188.96,728.57z"/>
<g>
	<g>
		<g>
			<path class="st0" d="M210.69,776.69c-0.02,0.1-0.26,0.16-0.71,0.08c-0.43-0.1-1.06-0.37-1.7-0.91c-1.27-1.08-2.67-3.04-3.48-5.88
				c-0.2-0.71-0.35-1.48-0.39-2.35c-0.03-0.86,0-1.55,0-2.38c0.01-1.58,0.03-3.27,0.04-5.05c0-1.77-0.04-3.62-0.15-5.52
				c-0.1-1.91-0.32-3.84-0.56-5.91c-1.76-16.37-4.22-29.53-3.27-29.74c0.43-0.09,1.53,3.1,2.85,8.39
				c1.32,5.29,2.69,12.73,3.61,20.99c0.23,2.04,0.46,4.13,0.51,6.12c0.07,1.99,0.05,3.91-0.03,5.73c-0.08,1.82-0.21,3.53-0.34,5.12
				c-0.06,0.77-0.15,1.61-0.18,2.23c-0.03,0.62,0.02,1.26,0.13,1.87c0.41,2.47,1.37,4.38,2.17,5.51
				C209.99,776.14,210.73,776.45,210.69,776.69z"/>
		</g>
	</g>
</g>
<path class="st12" d="M162.78,758.52c0.91,1.57,2,3.05,3.01,4.53c1.1,1.43,2,2.91,3.58,4.39c1.43,1.34,3.48,2.77,6.25,2.62
	c1.38-0.1,2.67-0.67,3.62-1.48c0.86-0.81,1.62-1.72,2.05-2.67c0.95-1.81,1.33-3.72,1.62-5.44c0.24-1.62,0.53-3.2,0.81-4.77
	c0.62-3.1,1.29-6.15,2.15-9.16c1.67-5.91,3.53-11.54,6.77-15.98c3.2-4.48,7.44-7.82,11.92-10.44c8.73-5.53,18.6-6.39,26.47-4.44
	c8.01,2.1,14.54,5.47,19.83,8.09c9.2,4.86,18.64,9.43,36.06,8.88c6.06-0.19,13.5-1.38,21.56-4.58c4.05-1.62,8.2-3.72,12.26-6.58
	c1.05-0.72,2.05-1.48,3.05-2.34c1.1-0.91,2.96-2.77,3.58-4.2c0.38-0.76,0.43-1.43,0.29-2.15c-0.05-0.48-0.38-0.76-0.72-0.95
	c-0.29-0.19-0.57-0.38-0.91-0.48c-1.19-0.62-3.86-0.14-5.63,0c-10.25,1.24-21.27-3.15-30.76-10.78
	c-9.73-7.34-17.26-18.55-26.18-29.52c-2.24-2.81-4.34-5.53-6.82-8.44c-2.91-3.05-6.15-5.05-9.59-6.87
	c-6.92-3.43-14.83-5.82-23.18-5.05c-4.1,0.38-8.3,1.53-12.02,3.67c-3.82,2.34-6.63,4.82-9.82,7.2c-6.29,4.82-12.68,9.78-18.98,15.02
	c-6.34,5.25-12.45,10.63-18.03,16.5c-2.81,2.91-5.44,6.01-7.72,9.54c-0.53,0.95-1.14,1.76-1.62,2.77c-0.43,1.05-0.86,2.1-1.19,3.15
	c-0.48,1.96-1.05,3.91-1.29,5.91C150.57,730.53,155.2,746.22,162.78,758.52z M158.11,715.31c0.29-1.81,0.76-3.58,1.19-5.39
	l0.91-2.24c0.38-0.76,0.91-1.53,1.33-2.29c2-3.05,4.48-5.96,7.15-8.77c5.39-5.58,11.4-10.87,17.6-16.07
	c6.2-5.15,12.54-10.06,18.84-14.93c3.15-2.38,6.34-5.06,9.2-6.82c3.05-1.76,6.49-2.72,10.01-3.1c7.01-0.67,14.21,1.38,20.46,4.44
	c3.1,1.57,6.15,3.53,8.25,5.72c2.19,2.58,4.53,5.48,6.72,8.2c4.43,5.48,8.68,10.87,13.02,16.02c4.34,5.2,9.06,10.11,14.26,13.88
	c5.1,3.91,10.59,7.15,16.36,9.11c5.72,2.05,11.91,3.12,17.36,1.96c0.5-0.11,1.98-0.62,2.05,0c0.11,0.35-0.72,1.14-1.29,1.67
	c-0.86,0.76-1.76,1.48-2.72,2.19c-3.72,2.77-7.46,5.37-11.44,6.58c-23.74,7.24-41.96,1.08-44.06,0.13
	c-2.91-1.19-5.93-2.11-11.13-5.07c-5.25-2.91-12.62-6.46-20.96-8.94c-8.44-2.43-19.33-1.37-28.91,4.4
	c-4.77,2.67-9.23,5.24-13.35,11.75c-3.35,5.29-5.39,11.61-7.2,17.66c-0.91,3.05-1.67,6.25-2.34,9.49c-0.33,1.57-0.62,3.24-0.91,4.86
	c-0.24,1.57-0.57,2.91-1.19,4.05c-0.62,1.14-1.38,1.72-2,1.72c-0.72,0.05-1.81-0.48-2.81-1.43c-0.95-0.91-1.91-2.38-2.96-3.72
	c-0.91-1.43-1.91-2.81-2.77-4.29C159.78,744.45,155.63,729.86,158.11,715.31z"/>
</svg>
